<svg width="18" height="20" viewBox="0 0 18 20" fill="none" xmlns="http://www.w3.org/2000/svg">
<path d="M18 10C18.0007 10.2612 17.9294 10.5181 17.7932 10.7457C17.657 10.9733 17.4605 11.1639 17.2227 11.299L2.48727 19.7736C2.23884 19.9166 1.9543 19.9947 1.66303 19.9997C1.37177 20.0048 1.08435 19.9367 0.830455 19.8024C0.578976 19.6702 0.369487 19.4775 0.223531 19.2439C0.0775753 19.0104 0.000420195 18.7445 0 18.4736V1.52637C0.000420195 1.2555 0.0775753 0.989628 0.223531 0.756089C0.369487 0.52255 0.578976 0.329774 0.830455 0.197586C1.08435 0.063312 1.37177 -0.00480701 1.66303 0.000263782C1.9543 0.00533457 2.23884 0.0834115 2.48727 0.226431L17.2227 8.70102C17.4605 8.83609 17.657 9.0267 17.7932 9.25432C17.9294 9.48195 18.0007 9.73883 18 10Z" fill="#F8F8F8"/>
</svg>
